<svg width="206" height="135" viewBox="0 0 206 135" fill="none" xmlns="http://www.w3.org/2000/svg">
<mask id="path-1-inside-1_127_96" fill="white">
<path d="M0 8C0 3.58172 3.58172 0 8 0H206V135H8C3.58172 135 0 131.418 0 127V8Z"/>
</mask>
<path d="M0 8C0 3.58172 3.58172 0 8 0H206V135H8C3.58172 135 0 131.418 0 127V8Z" fill="white"/>
<path d="M-1 8C-1 3.02944 3.02944 -1 8 -1H206V1H8C4.13401 1 1 4.13401 1 8H-1ZM206 136H8C3.02944 136 -1 131.971 -1 127H1C1 130.866 4.13401 134 8 134H206V136ZM8 136C3.02944 136 -1 131.971 -1 127V8C-1 3.02944 3.02944 -1 8 -1V1C4.13401 1 1 4.13401 1 8V127C1 130.866 4.13401 134 8 134V136ZM206 0V135V0Z" fill="#CED4DA" mask="url(#path-1-inside-1_127_96)"/>
<rect x="31" y="20" width="64" height="64" rx="8" fill="#DDCDF6"/>
<path d="M63 76C76.2548 76 87 65.2548 87 52C87 38.7452 76.2548 28 63 28C49.7452 28 39 38.7452 39 52C39 65.2548 49.7452 76 63 76Z" fill="#B17FFA"/>
<path d="M58.2061 60.7006L64.1277 66.6222L63 70.0057L68.3871 75.3927C79.0479 72.9476 87 63.4027 87 52C87 51.3674 86.9751 50.7407 86.9271 50.1205L77.8566 41.05L58.2061 60.7006Z" fill="#9A4AF9"/>
<path d="M62.2177 41.0582C58.3289 37.1694 52.0239 37.1694 48.1352 41.0582C44.2464 44.9469 44.2464 51.2519 48.1352 55.1406L63 70.0055L68.044 52.8778L63 41.8405L62.2177 41.0582Z" fill="#FB72A4"/>
<path d="M77.8649 41.0582C73.9762 37.1694 67.6712 37.1694 63.7824 41.0582L63 41.8405V70.0055L77.8649 55.1406C81.7537 51.2519 81.7537 44.9469 77.8649 41.0582Z" fill="#FB448B"/>
<rect x="111" y="20" width="64" height="64" rx="8" fill="#FABAC3"/>
<path d="M143 76C156.255 76 167 65.2548 167 52C167 38.7452 156.255 28 143 28C129.745 28 119 38.7452 119 52C119 65.2548 129.745 76 143 76Z" fill="#EB2540"/>
<path d="M139.021 54.5769C139.021 54.5769 137.205 58.1737 137.205 60.9463V60.9748L130.229 53.999C130.618 54.3711 131.135 54.5782 131.673 54.5769H139.021Z" fill="url(#paint0_linear_127_96)"/>
<path d="M167 52C167.002 57.2102 165.308 62.2796 162.175 66.4423C159.042 70.6051 154.639 73.6351 149.632 75.0748L138.895 64.3379C139.384 64.542 139.912 64.641 140.442 64.6285C141.276 64.6285 141.007 61.5274 141.209 60.3211C141.525 58.4264 147.595 54.9527 147.595 53.0579V41.0295C147.595 40.7069 147.492 40.3925 147.301 40.1327L149.142 41.9737V53.0453C149.145 53.4518 149.308 53.8409 149.596 54.1278C149.884 54.4146 150.273 54.5761 150.68 54.5769H154.893C155.299 54.5752 155.688 54.4134 155.975 54.1267C156.262 53.8399 156.425 53.4513 156.427 53.0453V41.0295C156.426 40.6341 156.271 40.2547 155.995 39.9716L166.984 50.9579C167 51.3021 167 51.6495 167 52Z" fill="url(#paint1_linear_127_96)"/>
<path d="M149.136 41.0295C149.139 40.6235 149.303 40.2352 149.59 39.949C149.878 39.6629 150.268 39.5019 150.674 39.501H154.886C155.292 39.5019 155.681 39.663 155.968 39.9492C156.256 40.2355 156.419 40.6238 156.421 41.0295V53.0452C156.419 53.4512 156.256 53.8398 155.969 54.1266C155.681 54.4134 155.292 54.5752 154.886 54.5768H150.674C150.267 54.576 149.877 54.4146 149.589 54.1277C149.301 53.8408 149.138 53.4518 149.136 53.0452V41.0295ZM131.202 50.4431C130.896 50.197 130.665 49.8696 130.535 49.4984C130.406 49.1271 130.384 48.727 130.472 48.3438C130.56 47.9606 130.753 47.6098 131.031 47.3316C131.309 47.0533 131.659 46.8589 132.042 46.7705C131.734 46.5255 131.502 46.1986 131.372 45.8275C131.242 45.4564 131.219 45.056 131.306 44.6724C131.393 44.2889 131.586 43.9376 131.864 43.6591C132.142 43.3806 132.492 43.1861 132.876 43.0979C132.539 42.8263 132.294 42.457 132.175 42.0407C132.056 41.6245 132.069 41.1817 132.212 40.773C132.355 40.3644 132.621 40.0101 132.973 39.7586C133.326 39.5071 133.747 39.3708 134.18 39.3684L146.06 39.501C146.465 39.5027 146.853 39.6643 147.139 39.9505C147.425 40.2368 147.587 40.6246 147.588 41.0295V53.0452C147.588 54.94 141.528 58.4389 141.203 60.3084C141.001 61.5147 141.269 64.6158 140.436 64.6158C139.021 64.6158 137.205 64.0726 137.205 60.9305C137.205 58.1579 139.021 54.561 139.021 54.561H131.673C131.158 54.5609 130.662 54.3716 130.279 54.0291C129.895 53.6867 129.651 53.215 129.593 52.7041C129.535 52.1933 129.667 51.6788 129.963 51.2589C130.26 50.8391 130.701 50.543 131.202 50.4274V50.4431Z" fill="white"/>
<path d="M37.2932 112V103.6H38.4932V110.956H43.0412V112H37.2932ZM44.2502 112V105.64H45.4022V112H44.2502ZM44.8262 104.416C44.6022 104.416 44.4142 104.344 44.2622 104.2C44.1182 104.056 44.0462 103.88 44.0462 103.672C44.0462 103.456 44.1182 103.276 44.2622 103.132C44.4142 102.988 44.6022 102.916 44.8262 102.916C45.0502 102.916 45.2342 102.988 45.3782 103.132C45.5302 103.268 45.6062 103.44 45.6062 103.648C45.6062 103.864 45.5342 104.048 45.3902 104.2C45.2462 104.344 45.0582 104.416 44.8262 104.416ZM48.5378 110.464L48.5618 108.988L52.2218 105.64H53.6138L50.8058 108.4L50.1818 108.928L48.5378 110.464ZM47.6018 112V103.096H48.7538V112H47.6018ZM52.4618 112L49.9658 108.904L50.7098 107.98L53.8778 112H52.4618ZM57.5705 112.072C56.8905 112.072 56.2905 111.932 55.7705 111.652C55.2585 111.372 54.8585 110.988 54.5705 110.5C54.2905 110.012 54.1505 109.452 54.1505 108.82C54.1505 108.188 54.2865 107.628 54.5585 107.14C54.8385 106.652 55.2185 106.272 55.6985 106C56.1865 105.72 56.7345 105.58 57.3425 105.58C57.9585 105.58 58.5025 105.716 58.9745 105.988C59.4465 106.26 59.8145 106.644 60.0785 107.14C60.3505 107.628 60.4865 108.2 60.4865 108.856C60.4865 108.904 60.4825 108.96 60.4745 109.024C60.4745 109.088 60.4705 109.148 60.4625 109.204H55.0505V108.376H59.8625L59.3945 108.664C59.4025 108.256 59.3185 107.892 59.1425 107.572C58.9665 107.252 58.7225 107.004 58.4105 106.828C58.1065 106.644 57.7505 106.552 57.3425 106.552C56.9425 106.552 56.5865 106.644 56.2745 106.828C55.9625 107.004 55.7185 107.256 55.5425 107.584C55.3665 107.904 55.2785 108.272 55.2785 108.688V108.88C55.2785 109.304 55.3745 109.684 55.5665 110.02C55.7665 110.348 56.0425 110.604 56.3945 110.788C56.7465 110.972 57.1505 111.064 57.6065 111.064C57.9825 111.064 58.3225 111 58.6265 110.872C58.9385 110.744 59.2105 110.552 59.4425 110.296L60.0785 111.04C59.7905 111.376 59.4305 111.632 58.9985 111.808C58.5745 111.984 58.0985 112.072 57.5705 112.072ZM63.9101 112.072C63.3821 112.072 62.8781 112 62.3981 111.856C61.9261 111.712 61.5541 111.536 61.2821 111.328L61.7621 110.416C62.0341 110.6 62.3701 110.756 62.7701 110.884C63.1701 111.012 63.5781 111.076 63.9941 111.076C64.5301 111.076 64.9141 111 65.1461 110.848C65.3861 110.696 65.5061 110.484 65.5061 110.212C65.5061 110.012 65.4341 109.856 65.2901 109.744C65.1461 109.632 64.9541 109.548 64.7141 109.492C64.4821 109.436 64.2221 109.388 63.9341 109.348C63.6461 109.3 63.3581 109.244 63.0701 109.18C62.7821 109.108 62.5181 109.012 62.2781 108.892C62.0381 108.764 61.8461 108.592 61.7021 108.376C61.5581 108.152 61.4861 107.856 61.4861 107.488C61.4861 107.104 61.5941 106.768 61.8101 106.48C62.0261 106.192 62.3301 105.972 62.7221 105.82C63.1221 105.66 63.5941 105.58 64.1381 105.58C64.5541 105.58 64.9741 105.632 65.3981 105.736C65.8301 105.832 66.1821 105.972 66.4541 106.156L65.9621 107.068C65.6741 106.876 65.3741 106.744 65.0621 106.672C64.7501 106.6 64.4381 106.564 64.1261 106.564C63.6221 106.564 63.2461 106.648 62.9981 106.816C62.7501 106.976 62.6261 107.184 62.6261 107.44C62.6261 107.656 62.6981 107.824 62.8421 107.944C62.9941 108.056 63.1861 108.144 63.4181 108.208C63.6581 108.272 63.9221 108.328 64.2101 108.376C64.4981 108.416 64.7861 108.472 65.0741 108.544C65.3621 108.608 65.6221 108.7 65.8541 108.82C66.0941 108.94 66.2861 109.108 66.4301 109.324C66.5821 109.54 66.6581 109.828 66.6581 110.188C66.6581 110.572 66.5461 110.904 66.3221 111.184C66.0981 111.464 65.7821 111.684 65.3741 111.844C64.9661 111.996 64.4781 112.072 63.9101 112.072Z" fill="#525557"/>
<path d="M72.1943 112V104.2L72.8783 104.908H70.4183V103.6H73.7543V112H72.1943ZM78.9246 112.12C78.2606 112.12 77.6606 111.952 77.1246 111.616C76.5966 111.28 76.1806 110.792 75.8766 110.152C75.5726 109.504 75.4206 108.72 75.4206 107.8C75.4206 106.88 75.5726 106.1 75.8766 105.46C76.1806 104.812 76.5966 104.32 77.1246 103.984C77.6606 103.648 78.2606 103.48 78.9246 103.48C79.5966 103.48 80.1966 103.648 80.7246 103.984C81.2526 104.32 81.6686 104.812 81.9726 105.46C82.2846 106.1 82.4406 106.88 82.4406 107.8C82.4406 108.72 82.2846 109.504 81.9726 110.152C81.6686 110.792 81.2526 111.28 80.7246 111.616C80.1966 111.952 79.5966 112.12 78.9246 112.12ZM78.9246 110.764C79.3166 110.764 79.6566 110.66 79.9446 110.452C80.2326 110.236 80.4566 109.908 80.6166 109.468C80.7846 109.028 80.8686 108.472 80.8686 107.8C80.8686 107.12 80.7846 106.564 80.6166 106.132C80.4566 105.692 80.2326 105.368 79.9446 105.16C79.6566 104.944 79.3166 104.836 78.9246 104.836C78.5486 104.836 78.2126 104.944 77.9166 105.16C77.6286 105.368 77.4006 105.692 77.2326 106.132C77.0726 106.564 76.9926 107.12 76.9926 107.8C76.9926 108.472 77.0726 109.028 77.2326 109.468C77.4006 109.908 77.6286 110.236 77.9166 110.452C78.2126 110.66 78.5486 110.764 78.9246 110.764Z" fill="black"/>
<line x1="103.5" y1="100" x2="103.5" y2="115" stroke="#CED4DA"/>
<path d="M116.541 112V103.6H120.081C120.977 103.6 121.765 103.776 122.445 104.128C123.133 104.48 123.665 104.972 124.041 105.604C124.425 106.236 124.617 106.968 124.617 107.8C124.617 108.632 124.425 109.364 124.041 109.996C123.665 110.628 123.133 111.12 122.445 111.472C121.765 111.824 120.977 112 120.081 112H116.541ZM117.741 110.956H120.009C120.705 110.956 121.305 110.824 121.809 110.56C122.321 110.296 122.717 109.928 122.997 109.456C123.277 108.976 123.417 108.424 123.417 107.8C123.417 107.168 123.277 106.616 122.997 106.144C122.717 105.672 122.321 105.304 121.809 105.04C121.305 104.776 120.705 104.644 120.009 104.644H117.741V110.956ZM126.287 112V105.64H127.439V112H126.287ZM126.863 104.416C126.639 104.416 126.451 104.344 126.299 104.2C126.155 104.056 126.083 103.88 126.083 103.672C126.083 103.456 126.155 103.276 126.299 103.132C126.451 102.988 126.639 102.916 126.863 102.916C127.087 102.916 127.271 102.988 127.415 103.132C127.567 103.268 127.643 103.44 127.643 103.648C127.643 103.864 127.571 104.048 127.427 104.2C127.283 104.344 127.095 104.416 126.863 104.416ZM131.463 112.072C130.935 112.072 130.431 112 129.951 111.856C129.479 111.712 129.107 111.536 128.835 111.328L129.315 110.416C129.587 110.6 129.923 110.756 130.323 110.884C130.723 111.012 131.131 111.076 131.547 111.076C132.083 111.076 132.467 111 132.699 110.848C132.939 110.696 133.059 110.484 133.059 110.212C133.059 110.012 132.987 109.856 132.843 109.744C132.699 109.632 132.507 109.548 132.267 109.492C132.035 109.436 131.775 109.388 131.487 109.348C131.199 109.3 130.911 109.244 130.623 109.18C130.335 109.108 130.071 109.012 129.831 108.892C129.591 108.764 129.399 108.592 129.255 108.376C129.111 108.152 129.039 107.856 129.039 107.488C129.039 107.104 129.147 106.768 129.363 106.48C129.579 106.192 129.883 105.972 130.275 105.82C130.675 105.66 131.147 105.58 131.691 105.58C132.107 105.58 132.527 105.632 132.951 105.736C133.383 105.832 133.735 105.972 134.007 106.156L133.515 107.068C133.227 106.876 132.927 106.744 132.615 106.672C132.303 106.6 131.991 106.564 131.679 106.564C131.175 106.564 130.799 106.648 130.551 106.816C130.303 106.976 130.179 107.184 130.179 107.44C130.179 107.656 130.251 107.824 130.395 107.944C130.547 108.056 130.739 108.144 130.971 108.208C131.211 108.272 131.475 108.328 131.763 108.376C132.051 108.416 132.339 108.472 132.627 108.544C132.915 108.608 133.175 108.7 133.407 108.82C133.647 108.94 133.839 109.108 133.983 109.324C134.135 109.54 134.211 109.828 134.211 110.188C134.211 110.572 134.099 110.904 133.875 111.184C133.651 111.464 133.335 111.684 132.927 111.844C132.519 111.996 132.031 112.072 131.463 112.072ZM135.651 112V103.096H136.803V112H135.651ZM139.002 112V105.64H140.154V112H139.002ZM139.578 104.416C139.354 104.416 139.166 104.344 139.014 104.2C138.87 104.056 138.798 103.88 138.798 103.672C138.798 103.456 138.87 103.276 139.014 103.132C139.166 102.988 139.354 102.916 139.578 102.916C139.802 102.916 139.986 102.988 140.13 103.132C140.282 103.268 140.358 103.44 140.358 103.648C140.358 103.864 140.286 104.048 140.142 104.2C139.998 104.344 139.81 104.416 139.578 104.416ZM143.29 110.464L143.314 108.988L146.974 105.64H148.366L145.558 108.4L144.934 108.928L143.29 110.464ZM142.354 112V103.096H143.506V112H142.354ZM147.214 112L144.718 108.904L145.462 107.98L148.63 112H147.214ZM152.322 112.072C151.642 112.072 151.042 111.932 150.522 111.652C150.01 111.372 149.61 110.988 149.322 110.5C149.042 110.012 148.902 109.452 148.902 108.82C148.902 108.188 149.038 107.628 149.31 107.14C149.59 106.652 149.97 106.272 150.45 106C150.938 105.72 151.486 105.58 152.094 105.58C152.71 105.58 153.254 105.716 153.726 105.988C154.198 106.26 154.566 106.644 154.83 107.14C155.102 107.628 155.238 108.2 155.238 108.856C155.238 108.904 155.234 108.96 155.226 109.024C155.226 109.088 155.222 109.148 155.214 109.204H149.802V108.376H154.614L154.146 108.664C154.154 108.256 154.07 107.892 153.894 107.572C153.718 107.252 153.474 107.004 153.162 106.828C152.858 106.644 152.502 106.552 152.094 106.552C151.694 106.552 151.338 106.644 151.026 106.828C150.714 107.004 150.47 107.256 150.294 107.584C150.118 107.904 150.03 108.272 150.03 108.688V108.88C150.03 109.304 150.126 109.684 150.318 110.02C150.518 110.348 150.794 110.604 151.146 110.788C151.498 110.972 151.902 111.064 152.358 111.064C152.734 111.064 153.074 111 153.378 110.872C153.69 110.744 153.962 110.552 154.194 110.296L154.83 111.04C154.542 111.376 154.182 111.632 153.75 111.808C153.326 111.984 152.85 112.072 152.322 112.072ZM158.662 112.072C158.134 112.072 157.63 112 157.15 111.856C156.678 111.712 156.306 111.536 156.034 111.328L156.514 110.416C156.786 110.6 157.122 110.756 157.522 110.884C157.922 111.012 158.33 111.076 158.746 111.076C159.282 111.076 159.666 111 159.898 110.848C160.138 110.696 160.258 110.484 160.258 110.212C160.258 110.012 160.186 109.856 160.042 109.744C159.898 109.632 159.706 109.548 159.466 109.492C159.234 109.436 158.974 109.388 158.686 109.348C158.398 109.3 158.11 109.244 157.822 109.18C157.534 109.108 157.27 109.012 157.03 108.892C156.79 108.764 156.598 108.592 156.454 108.376C156.31 108.152 156.238 107.856 156.238 107.488C156.238 107.104 156.346 106.768 156.562 106.48C156.778 106.192 157.082 105.972 157.474 105.82C157.874 105.66 158.346 105.58 158.89 105.58C159.306 105.58 159.726 105.632 160.15 105.736C160.582 105.832 160.934 105.972 161.206 106.156L160.714 107.068C160.426 106.876 160.126 106.744 159.814 106.672C159.502 106.6 159.19 106.564 158.878 106.564C158.374 106.564 157.998 106.648 157.75 106.816C157.502 106.976 157.378 107.184 157.378 107.44C157.378 107.656 157.45 107.824 157.594 107.944C157.746 108.056 157.938 108.144 158.17 108.208C158.41 108.272 158.674 108.328 158.962 108.376C159.25 108.416 159.538 108.472 159.826 108.544C160.114 108.608 160.374 108.7 160.606 108.82C160.846 108.94 161.038 109.108 161.182 109.324C161.334 109.54 161.41 109.828 161.41 110.188C161.41 110.572 161.298 110.904 161.074 111.184C160.85 111.464 160.534 111.684 160.126 111.844C159.718 111.996 159.23 112.072 158.662 112.072Z" fill="#525557"/>
<path d="M166.946 112V104.2L167.63 104.908H165.17V103.6H168.506V112H166.946ZM173.677 112.12C173.013 112.12 172.413 111.952 171.877 111.616C171.349 111.28 170.933 110.792 170.629 110.152C170.325 109.504 170.173 108.72 170.173 107.8C170.173 106.88 170.325 106.1 170.629 105.46C170.933 104.812 171.349 104.32 171.877 103.984C172.413 103.648 173.013 103.48 173.677 103.48C174.349 103.48 174.949 103.648 175.477 103.984C176.005 104.32 176.421 104.812 176.725 105.46C177.037 106.1 177.193 106.88 177.193 107.8C177.193 108.72 177.037 109.504 176.725 110.152C176.421 110.792 176.005 111.28 175.477 111.616C174.949 111.952 174.349 112.12 173.677 112.12ZM173.677 110.764C174.069 110.764 174.409 110.66 174.697 110.452C174.985 110.236 175.209 109.908 175.369 109.468C175.537 109.028 175.621 108.472 175.621 107.8C175.621 107.12 175.537 106.564 175.369 106.132C175.209 105.692 174.985 105.368 174.697 105.16C174.409 104.944 174.069 104.836 173.677 104.836C173.301 104.836 172.965 104.944 172.669 105.16C172.381 105.368 172.153 105.692 171.985 106.132C171.825 106.564 171.745 107.12 171.745 107.8C171.745 108.472 171.825 109.028 171.985 109.468C172.153 109.908 172.381 110.236 172.669 110.452C172.965 110.66 173.301 110.764 173.677 110.764Z" fill="black"/>
<defs>
<linearGradient id="paint0_linear_127_96" x1="132.282" y1="51.9463" x2="139.258" y2="58.9221" gradientUnits="userSpaceOnUse">
<stop stop-color="#B71C1C"/>
<stop offset="1" stop-color="#B71C1C" stop-opacity="0"/>
</linearGradient>
<linearGradient id="paint1_linear_127_96" x1="141.355" y1="46.0727" x2="162.112" y2="66.8295" gradientUnits="userSpaceOnUse">
<stop stop-color="#B71C1C"/>
<stop offset="1" stop-color="#B71C1C" stop-opacity="0"/>
</linearGradient>
</defs>
</svg>
