<svg width="278" height="278" viewBox="0 0 278 278" fill="none" xmlns="http://www.w3.org/2000/svg">
<path d="M215.057 138.749C215.057 180.887 180.905 215.057 138.75 215.057C96.6125 215.057 62.4422 180.887 62.4422 138.749C62.4422 96.6122 96.6125 62.4418 138.75 62.4418C180.905 62.4418 215.057 96.6122 215.057 138.749Z" fill="#96BE4B"/>
<path d="M138.75 255.5C74.2802 255.5 21.9998 203.221 21.9998 138.749C21.9998 74.2796 74.2802 22.0011 138.75 22.0011C203.247 22.0011 255.5 74.2796 255.5 138.749C255.5 203.221 203.247 255.5 138.75 255.5ZM270.445 143.795C269.544 142.241 269.108 140.495 269.108 138.749C269.108 137.006 269.544 135.26 270.445 133.705L276.172 123.451C278.516 119.278 277.699 114.071 274.181 110.824L265.563 102.833C262.918 100.406 261.717 96.78 262.426 93.2607L264.717 81.7251C265.671 77.0346 263.272 72.3441 258.909 70.3534L248.272 65.4161C245 63.9171 242.736 60.8362 242.327 57.2635L240.963 45.5897C240.39 40.8459 236.628 37.137 231.91 36.5643L220.238 35.1739C216.665 34.7374 213.582 32.5275 212.056 29.255L207.174 18.5647C205.155 14.2554 200.437 11.8282 195.774 12.7821L184.239 15.073C180.721 15.7563 177.066 14.5832 174.638 11.9644L166.676 3.32016C163.431 -0.199158 158.195 -1.01675 154.05 1.32947L143.794 7.05676C142.24 7.95538 140.496 8.39185 138.75 8.39185C137.004 8.39185 135.258 7.95538 133.704 7.05676L123.478 1.32947C119.277 -1.01675 114.069 -0.199158 110.85 3.32016L102.86 11.9644C100.407 14.5832 96.7787 15.7563 93.2614 15.073L81.7514 12.7821C77.061 11.8282 72.3429 14.2554 70.3521 18.5647L65.4168 29.255C63.9435 32.5275 60.8349 34.7374 57.2623 35.1739L45.618 36.5643C40.8446 37.137 37.108 40.8459 36.563 45.5897L35.2003 57.2635C34.7638 60.8362 32.5262 63.9171 29.2537 65.4161L18.5911 70.3534C14.2541 72.3441 11.8545 77.0346 12.7551 81.7251L15.0461 93.2607C15.7827 96.78 14.6096 100.406 11.9375 102.833L3.31887 110.824C-0.170837 114.071 -1.01808 119.278 1.3005 123.451L7.05548 133.705C7.9284 135.26 8.36484 137.006 8.36484 138.749C8.36484 140.495 7.9284 142.241 7.05548 143.795L1.3005 154.049C-1.01808 158.195 -0.170837 163.43 3.31887 166.677L11.9375 174.64C14.6096 177.095 15.7827 180.721 15.0461 184.24L12.7551 195.776C11.8545 200.466 14.2541 205.156 18.5911 207.147L29.2537 212.057C32.5262 213.584 34.7638 216.664 35.2003 220.237L36.563 231.909C37.108 236.655 40.8446 240.364 45.618 240.936L57.2623 242.327C60.8349 242.763 63.9435 245.001 65.4168 248.246L70.3521 258.936C72.3429 263.245 77.061 265.672 81.7514 264.719L93.2614 262.428C96.7787 261.744 100.407 262.917 102.86 265.536L110.85 274.153C114.069 277.7 119.277 278.517 123.478 276.171L133.704 270.444C135.258 269.545 137.004 269.109 138.75 269.109C140.496 269.109 142.24 269.545 143.794 270.444L154.05 276.171C158.195 278.517 163.431 277.7 166.676 274.153L174.638 265.536C177.066 262.917 180.721 261.744 184.239 262.428L195.774 264.719C200.437 265.672 205.155 263.245 207.174 258.936L212.056 248.246C213.582 245.001 216.665 242.763 220.238 242.327L231.91 240.936C236.628 240.364 240.39 236.655 240.963 231.909L242.327 220.237C242.736 216.664 245 213.584 248.272 212.057L258.909 207.147C263.272 205.156 265.671 200.466 264.717 195.776L262.426 184.24C261.717 180.721 262.918 177.095 265.563 174.64L274.181 166.677C277.699 163.43 278.516 158.195 276.172 154.049L270.445 143.795Z" fill="#96BE4B"/>
<path d="M43.416 123.13L47.2375 130.871L55.7831 132.114L49.5995 138.141L51.059 146.651L43.416 142.632L35.775 146.651L37.2345 138.141L31.051 132.114L39.5945 130.871L43.416 123.13Z" fill="#96BE4B"/>
<path d="M234.252 123.13L238.073 130.871L246.617 132.114L240.435 138.141L241.895 146.651L234.252 142.632L226.609 146.651L228.068 138.141L221.887 132.114L230.43 130.871L234.252 123.13Z" fill="#96BE4B"/>
<path d="M43.1216 83.6311L64.018 95.0245L61.6091 99.4425L44.9063 90.3356L44.8395 90.458L45.2302 96.879L41.3121 94.7427L40.8574 87.7839L43.1216 83.6311Z" fill="#96BE4B"/>
<path d="M74.5109 81.5372C73.2042 83.0498 71.7113 84.0355 70.0323 84.4943C68.3583 84.9472 66.5663 84.8653 64.6562 84.2485C62.7511 83.6258 60.8129 82.4644 58.8414 80.7644C56.8708 79.0753 55.441 77.3446 54.5519 75.5723C53.6679 73.7941 53.3305 72.0508 53.5398 70.3424C53.7482 68.623 54.5003 67.0075 55.7961 65.4957C57.0919 63.9839 58.571 62.9965 60.2332 62.5335C61.9004 62.0646 63.6803 62.131 65.5727 62.7327C67.4593 63.3293 69.3853 64.4752 71.3509 66.1702C73.3333 67.8693 74.7753 69.6156 75.677 71.4089C76.5837 73.1963 76.9413 74.9518 76.7496 76.6753C76.558 78.3989 75.8118 80.0195 74.5109 81.5372ZM71.3433 78.822C72.2307 77.7867 72.4185 76.514 71.9067 75.0039C71.395 73.4938 70.0954 71.8492 68.008 70.0702C66.6374 68.8954 65.3752 68.0584 64.2214 67.5592C63.0727 67.0542 62.0495 66.8609 61.152 66.9794C60.2596 67.092 59.5184 67.4924 58.9285 68.1806C58.0461 69.21 57.8549 70.4747 58.3549 71.9748C58.8549 73.4748 60.1289 75.1076 62.1768 76.8732C63.565 78.0631 64.8424 78.9182 66.0088 79.4383C67.1743 79.9476 68.2088 80.1455 69.1121 80.0321C70.0096 79.9136 70.7533 79.5102 71.3433 78.822Z" fill="#96BE4B"/>
<path d="M87.8486 69.4003C86.2566 70.6092 84.5918 71.264 82.8542 71.3648C81.1227 71.4609 79.3866 71.0092 77.6458 70.0098C75.9112 69.0057 74.2559 67.4678 72.6797 65.396C71.102 63.3351 70.062 61.3456 69.5597 59.4275C69.0634 57.5046 69.0948 55.7293 69.6536 54.1013C70.2139 52.4626 71.2846 51.038 72.8657 49.8277C74.4468 48.6174 76.0983 47.958 77.8204 47.8497C79.5487 47.7366 81.2761 48.1705 83.0027 49.1514C84.7246 50.1262 86.3713 51.6464 87.9428 53.712C89.5298 55.7853 90.5785 57.7925 91.0889 59.7338C91.6054 61.6703 91.5912 63.4618 91.0465 65.1082C90.5018 66.7546 89.4358 68.1853 87.8486 69.4003ZM85.3126 66.0874C86.3953 65.2586 86.8429 64.0525 86.6553 62.4691C86.4677 60.8857 85.5373 59.0075 83.864 56.8344C82.7667 55.4009 81.7054 54.3205 80.6802 53.593C79.6611 52.8607 78.7003 52.4596 77.7977 52.3894C76.9013 52.3146 76.0932 52.5526 75.3734 53.1036C74.2968 53.9278 73.8476 55.1254 74.0258 56.6965C74.204 58.2676 75.1118 60.129 76.7492 62.2807C77.8606 63.7326 78.9329 64.8339 79.9662 65.5846C81.0008 66.3244 81.9718 66.7324 82.8791 66.8087C83.7816 66.8789 84.5928 66.6384 85.3126 66.0874Z" fill="#96BE4B"/>
<path d="M104.672 54.3544L104.209 53.1878C103.857 52.3021 103.721 51.4141 103.801 50.5237C103.886 49.6233 104.199 48.807 104.742 48.0746C105.289 47.3323 106.085 46.7538 107.129 46.3394C108.188 45.9192 109.166 45.7894 110.063 45.95C110.968 46.1077 111.752 46.4882 112.417 47.0913C113.085 47.6843 113.597 48.4273 113.952 49.3202L114.415 50.4868C114.766 51.3725 114.904 52.2642 114.826 53.1617C114.746 54.052 114.431 54.8648 113.881 55.6C113.334 56.3423 112.538 56.9208 111.494 57.3353C110.436 57.7555 109.456 57.8817 108.556 57.7138C107.659 57.5532 106.876 57.1764 106.207 56.5833C105.535 55.9831 105.023 55.2401 104.672 54.3544ZM107.352 51.9401L107.815 53.1066C108.018 53.6179 108.332 54.0518 108.757 54.4082C109.189 54.7619 109.733 54.8086 110.388 54.5485C111.043 54.2884 111.401 53.8879 111.461 53.3471C111.529 52.8035 111.459 52.2688 111.25 51.7431L110.787 50.5766C110.578 50.0509 110.269 49.607 109.858 49.2448C109.447 48.8826 108.904 48.8358 108.227 49.1045C107.579 49.3618 107.219 49.7673 107.147 50.321C107.075 50.8747 107.143 51.4144 107.352 51.9401ZM88.2942 46.2015L87.8311 45.0349C87.4766 44.142 87.343 43.249 87.4302 42.3558C87.5146 41.4554 87.8282 40.639 88.3711 39.9067C88.9212 39.1715 89.7111 38.5995 90.7408 38.1908C91.8066 37.7677 92.7881 37.6365 93.6854 37.7971C94.5827 37.9577 95.3673 38.3381 96.039 38.9384C96.7079 39.5315 97.2196 40.2745 97.574 41.1674L98.0371 42.3339C98.3915 43.2269 98.5252 44.1199 98.4379 45.0131C98.3579 45.9035 98.0429 46.7162 97.4928 47.4514C96.9471 48.1765 96.1485 48.7477 95.0972 49.1651C94.0458 49.5824 93.0679 49.7122 92.1634 49.5545C91.2632 49.3866 90.4801 49.0098 89.8141 48.424C89.1524 47.828 88.6458 47.0872 88.2942 46.2015ZM90.9959 43.7786L91.459 44.9452C91.6677 45.4709 91.983 45.9083 92.4051 46.2576C92.8344 46.604 93.3658 46.6514 93.9995 46.3999C94.662 46.1369 95.0235 45.735 95.0839 45.1942C95.1515 44.6506 95.0809 44.1159 94.8723 43.5903L94.4092 42.4237C94.2005 41.898 93.8909 41.4541 93.4804 41.0919C93.0699 40.7297 92.5226 40.6844 91.8385 40.956C91.1976 41.2104 90.8462 41.6166 90.7843 42.1746C90.7224 42.7327 90.793 43.2674 90.9959 43.7786ZM96.3917 62.4426L102.819 34.284L105.649 33.1606L99.2217 61.3192L96.3917 62.4426Z" fill="#96BE4B"/>
<path d="M146.305 36.2289C146.152 35.6606 145.932 35.157 145.646 34.718C145.359 34.2714 145.005 33.8933 144.584 33.5837C144.171 33.2666 143.695 33.022 143.156 32.8498C142.624 32.6779 142.033 32.5862 141.382 32.5749C140.166 32.5537 139.092 32.8372 138.159 33.4254C137.235 34.0137 136.507 34.8805 135.976 36.0258C135.444 37.1634 135.164 38.561 135.135 40.2188C135.107 41.8765 135.334 43.2907 135.817 44.4615C136.3 45.6322 136.998 46.5316 137.909 47.1596C138.82 47.7799 139.903 48.1009 141.158 48.1228C142.297 48.1426 143.273 47.9581 144.085 47.5693C144.906 47.1729 145.535 46.6066 145.974 45.8704C146.421 45.1343 146.653 44.2588 146.671 43.244L147.691 43.4129L141.556 43.3061L141.622 39.5181L151.58 39.6914L151.528 42.6893C151.491 44.7809 151.018 46.5703 150.109 48.0578C149.2 49.5375 147.964 50.6705 146.4 51.4569C144.837 52.2356 143.056 52.6075 141.057 52.5727C138.826 52.5339 136.875 52.0078 135.204 50.9946C133.532 49.9737 132.24 48.5448 131.326 46.7079C130.421 44.8635 129.99 42.6863 130.034 40.1764C130.067 38.2476 130.376 36.5327 130.96 35.0319C131.552 33.5234 132.364 32.2513 133.398 31.2154C134.431 30.1796 135.626 29.3984 136.983 28.8719C138.341 28.3453 139.806 28.0958 141.378 28.1231C142.726 28.1466 143.978 28.366 145.133 28.7813C146.288 29.1888 147.309 29.7568 148.195 30.4851C149.089 31.2135 149.814 32.0747 150.37 33.0684C150.926 34.0545 151.275 35.1376 151.418 36.3179L146.305 36.2289Z" fill="#96BE4B"/>
<path d="M153.279 52.9603L159.647 30.0274L168.694 32.5398C170.426 33.0207 171.818 33.7409 172.871 34.7005C173.932 35.6546 174.628 36.7845 174.957 38.09C175.295 39.3901 175.254 40.7979 174.833 42.3133C174.41 43.8362 173.718 45.0551 172.757 45.9701C171.797 46.8776 170.613 47.4494 169.205 47.6855C167.804 47.9237 166.222 47.7981 164.461 47.3089L158.403 45.6268L159.485 41.73L164.759 43.1945C165.685 43.4515 166.489 43.5381 167.171 43.4543C167.854 43.3704 168.415 43.1162 168.855 42.6915C169.302 42.2688 169.63 41.6805 169.839 40.9265C170.051 40.1651 170.076 39.4806 169.915 38.873C169.761 38.2676 169.412 37.7444 168.867 37.3036C168.332 36.8574 167.597 36.5048 166.664 36.2457L163.395 35.3377L158.127 54.3067L153.279 52.9603ZM168.561 45.963L171.363 57.9819L166.01 56.4957L163.332 44.5109L168.561 45.963Z" fill="#96BE4B"/>
<path d="M176.989 60.898L172.318 58.2029L191.33 41.6946L196.947 44.9357L192.158 69.6511L187.487 66.9561L191.501 48.0724L191.34 47.9795L176.989 60.898ZM181.373 52.6266L192.405 58.9925L190.441 62.3947L179.409 56.0288L181.373 52.6266Z" fill="#96BE4B"/>
<path d="M205.605 55.8231L208.459 52.8117L222.647 66.2579L219.793 69.2692L214.504 64.2569L200.986 78.5206L197.376 75.0991L210.894 60.8354L205.605 55.8231Z" fill="#96BE4B"/>
<path d="M227.842 73.6485L208.814 87.9454L205.791 83.9224L224.819 69.6255L227.842 73.6485Z" fill="#96BE4B"/>
<path d="M233.202 96.0525C233.992 95.5381 234.454 94.8485 234.59 93.9836C234.726 93.1187 234.516 92.1499 233.959 91.0771C233.581 90.3482 233.158 89.7862 232.691 89.3913C232.232 88.9928 231.753 88.7522 231.256 88.6696C230.763 88.5938 230.29 88.6737 229.836 88.9093C229.45 89.0918 229.161 89.3422 228.969 89.6604C228.779 89.9855 228.662 90.3563 228.616 90.7729C228.577 91.1858 228.588 91.6344 228.647 92.1186C228.713 92.5993 228.814 93.0968 228.95 93.6111L229.481 95.7446C229.753 96.7731 229.917 97.7617 229.973 98.7104C230.029 99.659 229.952 100.546 229.743 101.37C229.533 102.194 229.168 102.938 228.648 103.601C228.132 104.27 227.435 104.837 226.558 105.301C225.262 105.965 223.97 106.216 222.682 106.055C221.404 105.898 220.186 105.343 219.028 104.39C217.881 103.44 216.861 102.106 215.969 100.387C215.084 98.6814 214.574 97.0604 214.44 95.5238C214.31 93.9942 214.573 92.6093 215.23 91.3693C215.898 90.1325 216.983 89.1026 218.485 88.2796L220.727 92.6016C220.044 93.0173 219.558 93.5271 219.269 94.1309C218.991 94.7381 218.888 95.4067 218.961 96.1367C219.045 96.8701 219.287 97.6219 219.687 98.3921C220.079 99.1485 220.53 99.7482 221.039 100.191C221.552 100.641 222.084 100.919 222.637 101.025C223.19 101.131 223.72 101.052 224.229 100.788C224.704 100.541 225.029 100.193 225.206 99.7437C225.387 99.3009 225.451 98.7524 225.4 98.0982C225.352 97.451 225.221 96.694 225.007 95.8275L224.391 93.2274C223.9 91.2215 223.848 89.4637 224.234 87.954C224.62 86.4442 225.595 85.2878 227.16 84.4846C228.435 83.8139 229.73 83.5744 231.042 83.766C232.359 83.9645 233.599 84.5298 234.763 85.4617C235.928 86.3937 236.91 87.6299 237.709 89.1703C238.523 90.7382 238.965 92.2458 239.035 93.6933C239.109 95.1475 238.838 96.4494 238.221 97.5987C237.604 98.7481 236.672 99.6596 235.424 100.333L233.202 96.0525Z" fill="#96BE4B"/>
<path d="M67.125 183.663L46.5824 195.682L44.0411 191.339L60.4612 181.732L60.3908 181.611L54.6893 178.633L58.541 176.379L64.7364 179.58L67.125 183.663Z" fill="#96BE4B"/>
<path d="M58.806 212.58C57.4779 211.087 56.6965 209.477 56.4618 207.753C56.2323 206.034 56.5486 204.268 57.4106 202.455C58.2778 200.648 59.6833 198.879 61.6272 197.148C63.5602 195.415 65.4635 194.225 67.337 193.576C69.2158 192.933 70.9883 192.827 72.6545 193.258C74.3317 193.691 75.8346 194.648 77.1634 196.131C78.4922 197.614 79.2771 199.21 79.5181 200.918C79.7643 202.633 79.465 204.388 78.6203 206.186C77.7814 207.978 76.3929 209.737 74.4547 211.463C72.5102 213.205 70.59 214.406 68.6939 215.065C66.803 215.729 65.0158 215.853 63.3323 215.437C61.6487 215.021 60.14 214.069 58.806 212.58ZM61.9132 209.796C62.8232 210.812 64.0603 211.165 65.6244 210.855C67.1886 210.546 68.9894 209.474 71.0268 207.637C72.3713 206.433 73.3666 205.291 74.0127 204.213C74.6641 203.14 74.9899 202.151 74.9901 201.246C74.9955 200.347 74.6958 199.559 74.0909 198.884C73.1861 197.874 71.9573 197.519 70.4047 197.818C68.8521 198.117 67.0663 199.166 65.0474 200.964C63.6856 202.185 62.6705 203.339 62.0018 204.427C61.3441 205.516 61.0122 206.515 61.0062 207.426C61.0059 208.331 61.3083 209.121 61.9132 209.796Z" fill="#96BE4B"/>
<path d="M75.2212 227.111C73.622 225.912 72.5355 224.491 71.9619 222.847C71.3944 221.209 71.3525 219.415 71.8359 217.467C72.3256 215.524 73.3503 213.51 74.9102 211.426C76.4592 209.343 78.087 207.797 79.7937 206.788C81.5066 205.783 83.2224 205.326 84.9412 205.417C86.6709 205.506 88.3345 206.145 89.9321 207.333C91.5298 208.522 92.6169 209.929 93.1936 211.555C93.7765 213.186 93.8332 214.966 93.3636 216.896C92.8986 218.819 91.8886 220.82 90.3333 222.898C88.7751 224.992 87.1326 226.552 85.4058 227.575C83.6853 228.603 81.9587 229.081 80.226 229.009C78.4933 228.937 76.8251 228.304 75.2212 227.111ZM77.7112 223.764C78.8053 224.577 80.0879 224.677 81.5591 224.062C83.0302 223.447 84.5811 222.037 86.2118 219.832C87.2892 218.383 88.037 217.066 88.4553 215.881C88.8798 214.7 89.002 213.666 88.8218 212.779C88.6479 211.896 88.1972 211.185 87.4699 210.644C86.382 209.834 85.1071 209.731 83.6452 210.333C82.1833 210.936 80.6424 212.319 79.0224 214.484C77.9312 215.951 77.1663 217.285 76.728 218.484C76.3004 219.682 76.1744 220.728 76.3499 221.621C76.5301 222.508 76.9839 223.223 77.7112 223.764Z" fill="#96BE4B"/>
<path d="M100.309 235.229L100.768 234.06C101.116 233.173 101.623 232.432 102.29 231.836C102.966 231.236 103.753 230.854 104.65 230.69C105.557 230.522 106.533 230.643 107.579 231.053C108.639 231.47 109.442 232.043 109.987 232.773C110.54 233.506 110.853 234.32 110.927 235.214C111.01 236.104 110.876 236.996 110.525 237.891L110.067 239.059C109.718 239.946 109.209 240.691 108.54 241.294C107.873 241.889 107.088 242.268 106.184 242.429C105.278 242.597 104.301 242.476 103.256 242.066C102.195 241.65 101.394 241.073 100.851 240.335C100.305 239.605 99.9909 238.795 99.9075 237.905C99.8269 237.008 99.9607 236.116 100.309 235.229ZM103.916 235.296L103.457 236.464C103.256 236.976 103.189 237.508 103.256 238.058C103.33 238.612 103.695 239.017 104.351 239.275C105.007 239.532 105.542 239.484 105.956 239.131C106.377 238.78 106.69 238.341 106.897 237.815L107.356 236.646C107.562 236.12 107.639 235.584 107.587 235.039C107.535 234.494 107.169 234.089 106.491 233.823C105.842 233.568 105.302 233.618 104.872 233.973C104.441 234.329 104.122 234.77 103.916 235.296ZM93.9165 218.087L94.3751 216.919C94.7261 216.024 95.2386 215.281 95.9124 214.688C96.5891 214.088 97.3757 213.706 98.2724 213.542C99.1764 213.381 100.144 213.503 101.175 213.908C102.243 214.327 103.049 214.901 103.595 215.631C104.14 216.362 104.454 217.175 104.534 218.073C104.618 218.963 104.484 219.855 104.133 220.749L103.674 221.917C103.323 222.812 102.811 223.555 102.137 224.148C101.47 224.744 100.685 225.122 99.781 225.283C98.8871 225.44 97.9137 225.312 96.8608 224.898C95.8078 224.485 95.0049 223.912 94.4521 223.179C93.9092 222.441 93.5947 221.631 93.5084 220.748C93.4322 219.861 93.5682 218.974 93.9165 218.087ZM97.5447 218.163L97.0861 219.331C96.8794 219.858 96.8109 220.393 96.8806 220.936C96.9575 221.482 97.3132 221.88 97.9479 222.129C98.6114 222.39 99.1499 222.343 99.5634 221.989C99.9841 221.638 100.298 221.2 100.504 220.673L100.963 219.505C101.17 218.978 101.247 218.443 101.194 217.898C101.142 217.353 100.773 216.946 100.088 216.677C99.4463 216.425 98.9122 216.482 98.4858 216.847C98.0594 217.212 97.7457 217.651 97.5447 218.163ZM88.7368 235.48L112.665 219.304L115.499 220.417L91.571 236.593L88.7368 235.48Z" fill="#96BE4B"/>
<path d="M144.877 230.833C144.705 230.27 144.468 229.774 144.167 229.345C143.865 228.908 143.499 228.542 143.068 228.247C142.645 227.944 142.161 227.716 141.616 227.562C141.079 227.408 140.485 227.336 139.834 227.347C138.618 227.366 137.554 227.686 136.641 228.305C135.737 228.924 135.039 229.815 134.546 230.977C134.053 232.132 133.821 233.538 133.847 235.196C133.874 236.854 134.149 238.26 134.671 239.413C135.194 240.567 135.921 241.443 136.852 242.04C137.784 242.629 138.877 242.914 140.132 242.893C141.271 242.875 142.24 242.658 143.039 242.242C143.846 241.818 144.456 241.231 144.87 240.48C145.292 239.73 145.495 238.847 145.478 237.832L146.503 237.966L140.368 238.066L140.307 234.278L150.265 234.116L150.313 237.114C150.347 239.206 149.935 241.01 149.076 242.527C148.217 244.037 147.02 245.211 145.484 246.049C143.947 246.88 142.18 247.312 140.181 247.344C137.95 247.38 135.982 246.92 134.278 245.964C132.573 244.999 131.233 243.615 130.259 241.81C129.292 239.997 128.788 237.835 128.747 235.325C128.716 233.396 128.967 231.672 129.5 230.152C130.041 228.625 130.81 227.326 131.808 226.256C132.806 225.186 133.974 224.365 135.313 223.793C136.652 223.222 138.108 222.923 139.68 222.897C141.028 222.876 142.286 223.053 143.455 223.429C144.623 223.798 145.662 224.331 146.572 225.029C147.49 225.727 148.244 226.563 148.833 227.538C149.422 228.505 149.808 229.575 149.989 230.75L144.877 230.833Z" fill="#96BE4B"/>
<path d="M156.927 245.896L151.032 222.837L160.13 220.512C161.871 220.067 163.437 219.998 164.827 220.306C166.223 220.605 167.389 221.239 168.324 222.207C169.265 223.166 169.93 224.408 170.32 225.932C170.711 227.463 170.718 228.865 170.339 230.137C169.959 231.402 169.217 232.487 168.113 233.393C167.016 234.297 165.582 234.975 163.811 235.428L157.72 236.985L156.718 233.067L162.021 231.711C162.952 231.473 163.692 231.148 164.243 230.736C164.793 230.323 165.153 229.823 165.323 229.236C165.5 228.647 165.492 227.973 165.298 227.215C165.102 226.45 164.783 225.843 164.341 225.397C163.907 224.948 163.343 224.668 162.651 224.557C161.965 224.437 161.152 224.497 160.214 224.736L156.926 225.577L161.802 244.65L156.927 245.896ZM166.697 232.219L175.111 241.248L169.729 242.624L161.439 233.564L166.697 232.219Z" fill="#96BE4B"/>
<path d="M184.979 236.869L180.231 239.425L176.184 214.573L181.894 211.499L200.4 228.567L195.652 231.123L181.699 217.781L181.535 217.869L184.979 236.869ZM180.248 228.791L191.463 222.753L193.325 226.212L182.11 232.25L180.248 228.791Z" fill="#96BE4B"/>
<path d="M190.809 210.993L188.072 207.875L202.761 194.978L205.498 198.095L200.023 202.903L212.989 217.67L209.251 220.952L196.285 206.185L190.809 210.993Z" fill="#96BE4B"/>
<path d="M204.887 191.345L223.255 206.481L220.055 210.364L201.687 195.229L204.887 191.345Z" fill="#96BE4B"/>
<path d="M220.411 180.075C219.555 179.681 218.725 179.657 217.921 180.003C217.116 180.348 216.409 181.043 215.797 182.085C215.382 182.794 215.132 183.451 215.046 184.056C214.954 184.658 215.005 185.191 215.2 185.655C215.399 186.113 215.719 186.471 216.16 186.73C216.52 186.958 216.886 187.07 217.258 187.063C217.633 187.05 218.01 186.952 218.387 186.769C218.757 186.581 219.131 186.334 219.509 186.026C219.881 185.713 220.248 185.363 220.611 184.974L222.133 183.388C222.858 182.609 223.608 181.944 224.381 181.391C225.154 180.839 225.945 180.431 226.754 180.169C227.563 179.907 228.387 179.819 229.225 179.907C230.067 179.987 230.917 180.275 231.777 180.769C233.03 181.513 233.931 182.472 234.481 183.648C235.029 184.813 235.208 186.139 235.018 187.626C234.826 189.103 234.24 190.677 233.261 192.348C232.289 194.006 231.189 195.301 229.96 196.233C228.735 197.158 227.423 197.673 226.024 197.778C224.622 197.872 223.172 197.503 221.675 196.671L224.138 192.47C224.853 192.827 225.544 192.966 226.209 192.889C226.871 192.801 227.491 192.532 228.07 192.081C228.646 191.619 229.153 191.014 229.592 190.265C230.023 189.53 230.29 188.829 230.394 188.162C230.501 187.489 230.452 186.89 230.248 186.366C230.043 185.842 229.693 185.435 229.199 185.145C228.738 184.875 228.27 184.784 227.795 184.874C227.324 184.957 226.825 185.195 226.299 185.587C225.777 185.973 225.206 186.487 224.587 187.129L222.715 189.036C221.279 190.521 219.82 191.502 218.336 191.979C216.853 192.457 215.355 192.248 213.841 191.352C212.594 190.63 211.702 189.662 211.165 188.449C210.631 187.229 210.449 185.879 210.617 184.397C210.785 182.915 211.308 181.425 212.186 179.928C213.079 178.404 214.119 177.227 215.306 176.396C216.498 175.558 217.744 175.095 219.045 175.004C220.347 174.914 221.615 175.217 222.85 175.914L220.411 180.075Z" fill="#96BE4B"/>
<path d="M90.5011 129.28C90.3143 128.631 90.0519 128.057 89.7139 127.559C89.3759 127.052 88.9622 126.625 88.473 126.278C87.9927 125.922 87.4412 125.651 86.8185 125.464C86.2047 125.277 85.5242 125.184 84.777 125.184C83.3805 125.184 82.1529 125.531 81.0944 126.225C80.0448 126.918 79.2264 127.928 78.6393 129.253C78.0522 130.57 77.7587 132.18 77.7587 134.084C77.7587 135.987 78.0478 137.606 78.626 138.94C79.2042 140.275 80.0225 141.293 81.0811 141.996C82.1396 142.69 83.3894 143.037 84.8304 143.037C86.138 143.037 87.2544 142.805 88.1795 142.343C89.1135 141.871 89.8251 141.209 90.3143 140.355C90.8125 139.501 91.0615 138.491 91.0615 137.326L92.2357 137.499H85.1907V133.15H96.6255V136.592C96.6255 138.994 96.1185 141.057 95.1044 142.783C94.0903 144.5 92.6938 145.825 90.9147 146.759C89.1357 147.684 87.0987 148.147 84.8037 148.147C82.2419 148.147 79.9914 147.582 78.0522 146.452C76.1131 145.314 74.6009 143.699 73.5156 141.609C72.4393 139.51 71.9012 137.019 71.9012 134.137C71.9012 131.922 72.2214 129.947 72.8618 128.213C73.5112 126.469 74.4185 124.993 75.5838 123.783C76.7491 122.573 78.1056 121.652 79.6534 121.021C81.2011 120.389 82.8779 120.074 84.6836 120.074C86.2314 120.074 87.6724 120.3 89.0067 120.754C90.341 121.199 91.5241 121.83 92.5559 122.649C93.5967 123.467 94.4462 124.441 95.1044 125.571C95.7627 126.692 96.1852 127.928 96.372 129.28H90.5011ZM100.965 147.773V120.447H111.746C113.81 120.447 115.571 120.816 117.03 121.555C118.498 122.284 119.614 123.32 120.379 124.663C121.153 125.998 121.54 127.568 121.54 129.373C121.54 131.188 121.149 132.749 120.366 134.057C119.583 135.356 118.449 136.352 116.963 137.046C115.487 137.739 113.699 138.086 111.6 138.086H104.381V133.443H110.666C111.769 133.443 112.685 133.292 113.414 132.989C114.144 132.687 114.686 132.233 115.042 131.628C115.407 131.024 115.589 130.272 115.589 129.373C115.589 128.466 115.407 127.701 115.042 127.079C114.686 126.456 114.139 125.984 113.401 125.664C112.671 125.335 111.751 125.17 110.639 125.17H106.743V147.773H100.965ZM115.722 135.338L122.514 147.773H116.136L109.491 135.338H115.722ZM130.333 147.773H124.142L133.575 120.447H141.021L150.441 147.773H144.25L137.405 126.692H137.191L130.333 147.773ZM129.946 137.032H144.57V141.542H129.946V137.032ZM149.35 125.211V120.447H171.793V125.211H163.427V147.773H157.716V125.211H149.35ZM181.266 120.447V147.773H175.489V120.447H181.266ZM200.843 128.306C200.737 127.23 200.278 126.394 199.469 125.798C198.66 125.202 197.561 124.904 196.173 124.904C195.23 124.904 194.434 125.037 193.785 125.304C193.136 125.562 192.637 125.922 192.291 126.385C191.953 126.847 191.784 127.372 191.784 127.959C191.766 128.448 191.868 128.875 192.09 129.24C192.322 129.605 192.637 129.921 193.038 130.187C193.438 130.445 193.901 130.672 194.425 130.868C194.95 131.055 195.511 131.215 196.107 131.348L198.562 131.935C199.754 132.202 200.848 132.558 201.844 133.003C202.84 133.448 203.703 133.995 204.433 134.644C205.162 135.293 205.727 136.058 206.127 136.939C206.536 137.82 206.745 138.829 206.754 139.968C206.745 141.64 206.318 143.09 205.473 144.318C204.637 145.536 203.427 146.484 201.844 147.16C200.27 147.827 198.37 148.16 196.147 148.16C193.941 148.16 192.019 147.822 190.383 147.146C188.755 146.47 187.483 145.469 186.566 144.144C185.659 142.81 185.183 141.16 185.139 139.194H190.729C190.792 140.11 191.054 140.875 191.517 141.489C191.988 142.094 192.615 142.552 193.398 142.863C194.19 143.166 195.084 143.317 196.08 143.317C197.058 143.317 197.908 143.174 198.628 142.89C199.358 142.605 199.923 142.209 200.323 141.702C200.723 141.195 200.923 140.613 200.923 139.954C200.923 139.341 200.741 138.825 200.376 138.407C200.021 137.989 199.496 137.633 198.802 137.339C198.117 137.046 197.276 136.779 196.28 136.539L193.305 135.791C191.001 135.231 189.182 134.355 187.847 133.163C186.513 131.971 185.85 130.365 185.859 128.346C185.85 126.692 186.291 125.246 187.18 124.01C188.079 122.773 189.311 121.808 190.876 121.114C192.442 120.42 194.221 120.074 196.213 120.074C198.241 120.074 200.012 120.42 201.524 121.114C203.045 121.808 204.228 122.773 205.073 124.01C205.918 125.246 206.354 126.678 206.381 128.306H200.843Z" fill="white"/>
</svg>
