<svg width="40" height="40" viewBox="0 0 40 40" fill="none" xmlns="http://www.w3.org/2000/svg">
<path d="M29.1723 0H10.8276C4.85718 0 0 4.85718 0 10.8276V29.1726C0 35.1427 4.85718 39.9999 10.8276 39.9999H29.1726C35.1427 39.9999 39.9999 35.1427 39.9999 29.1726V10.8276C39.9999 4.85718 35.1427 0 29.1723 0ZM20 30.9371C13.9691 30.9371 9.06279 26.0309 9.06279 20C9.06279 13.969 13.969 9.06279 20 9.06279C26.0309 9.06279 30.9371 13.969 30.9371 20C30.9371 26.0309 26.0309 30.9371 20 30.9371ZM31.1987 11.6422C29.4164 11.6422 27.9669 10.1926 27.9669 8.4103C27.9669 6.62803 29.4164 5.17827 31.1987 5.17827C32.9809 5.17827 34.4307 6.62811 34.4307 8.4103C34.4307 10.1925 32.9809 11.6422 31.1987 11.6422Z" fill="white"/>
<path d="M20 11.4078C15.2625 11.4078 11.4078 15.2621 11.4078 20C11.4078 24.7375 15.2625 28.5921 20 28.5921C24.7378 28.5921 28.5921 24.7375 28.5921 20C28.5921 15.2621 24.7378 11.4078 20 11.4078ZM31.1987 7.52344C30.7098 7.52344 30.3118 7.92148 30.3118 8.41031C30.3118 8.89922 30.7098 9.29718 31.1987 9.29718C31.6878 9.29718 32.0858 8.89953 32.0858 8.41031C32.0858 7.92117 31.6878 7.52344 31.1987 7.52344Z" fill="white"/>
</svg>
