<svg width="40" height="40" viewBox="0 0 40 40" fill="none" xmlns="http://www.w3.org/2000/svg">
<path d="M29.9445 0H10.0238C4.50436 0 0 4.50436 0 10.0238V29.9762C0 35.4639 4.50436 39.9683 10.0238 39.9683H29.9762C35.4956 39.9683 40 35.4639 40 29.9445V10.0238C39.9683 4.50436 35.4639 0 29.9445 0ZM13.3228 32.3553H7.61301V15.8604H13.3228V32.3553ZM10.4362 13.3228C8.8184 13.3228 7.51784 12.0222 7.51784 10.4044C7.51784 8.78668 8.8184 7.48612 10.4362 7.48612C12.0539 7.48612 13.3545 8.78668 13.3545 10.4044C13.3228 12.0222 12.0222 13.3228 10.4362 13.3228ZM32.387 32.3553H27.5971V24.3616C27.5971 22.4266 27.3434 19.9524 24.7105 19.9524C22.0143 19.9524 21.5702 22.046 21.5702 24.2347V32.3553H16.8121V15.8604H21.253V18.0809H21.3799C22.0777 16.8121 23.6955 15.8287 26.2331 15.8287C31.4671 15.8287 32.387 18.8422 32.387 23.3148V32.3553Z" fill="white"/>
</svg>
