<svg width="221" height="39" viewBox="0 0 221 39" fill="none" xmlns="http://www.w3.org/2000/svg">
<rect x="45.1764" y="1.23154" width="13.9067" height="31.0859" rx="6.95337" transform="rotate(46.5221 45.1764 1.23154)" fill="#48CAED"/>
<rect x="19.6805" y="6.46814" width="13.9067" height="31.0859" rx="6.95337" transform="rotate(46.5221 19.6805 6.46814)" fill="#FF9D00"/>
<path d="M35.4823 29.4631C29.9396 34.6498 21.2418 34.3612 16.0551 28.8185C10.8684 23.2759 11.1569 14.578 16.6996 9.39134C22.2423 4.20465 30.9401 4.49321 36.1268 10.0359C41.3135 15.5785 41.0249 24.2764 35.4823 29.4631Z" fill="#2A8BEA"/>
<path d="M16.6996 9.39134C11.1569 14.578 10.8684 23.2759 16.0551 28.8185L36.1268 10.0359C30.9401 4.49321 22.2423 4.20465 16.6996 9.39134Z" fill="#F73C5C"/>
<path d="M71.4103 29.9049C69.6844 29.9049 68.1699 29.607 66.8667 29.0111C65.5634 28.4153 64.5508 27.5685 63.8288 26.4709C63.1067 25.3576 62.7457 24.0797 62.7457 22.6371V13.1348C62.7457 12.9153 62.8161 12.7428 62.957 12.6174C63.0979 12.4919 63.2916 12.4292 63.5382 12.4292H66.127C66.3736 12.4292 66.5673 12.4919 66.7082 12.6174C66.8491 12.7428 66.9195 12.9153 66.9195 13.1348V22.6371C66.9195 23.5779 67.1484 24.3619 67.6063 24.9891C68.0642 25.6163 68.663 26.0632 69.4027 26.3298C70.0367 26.5807 70.7059 26.7061 71.4103 26.7061C72.1148 26.7061 72.8016 26.5728 73.4708 26.3063C74.1401 26.0397 74.6948 25.6163 75.1351 25.0362C75.6106 24.4403 75.8483 23.6406 75.8483 22.6371V13.1348C75.8483 12.9153 75.9188 12.7428 76.0597 12.6174C76.2006 12.4919 76.3943 12.4292 76.6408 12.4292H79.2297C79.4762 12.4292 79.6699 12.4919 79.8108 12.6174C79.9517 12.7428 80.0222 12.9153 80.0222 13.1348V22.6371C80.0222 24.0953 79.6699 25.3733 78.9655 26.4709C78.2611 27.5685 77.2572 28.4153 75.954 29.0111C74.6508 29.607 73.1362 29.9049 71.4103 29.9049Z" fill="black"/>
<path d="M83.2797 13.2995C83.1388 13.127 83.0683 12.978 83.0683 12.8526C83.0683 12.7271 83.13 12.6252 83.2533 12.5468C83.3765 12.4684 83.5438 12.4292 83.7552 12.4292H87.1629C87.5856 12.4292 87.9114 12.5703 88.1403 12.8526L92.7633 18.3563L97.3862 12.8526C97.6327 12.5703 97.9585 12.4292 98.3636 12.4292H101.745C101.956 12.4292 102.115 12.4684 102.22 12.5468C102.344 12.6252 102.405 12.7271 102.405 12.8526C102.405 12.978 102.335 13.127 102.194 13.2995L95.3785 21.0847L102.062 28.7289C102.203 28.9014 102.273 29.0503 102.273 29.1758C102.273 29.3012 102.212 29.4031 102.088 29.4815C101.983 29.5599 101.824 29.5991 101.613 29.5991H98.2051C97.8 29.5991 97.4742 29.458 97.2277 29.1758L92.7633 23.8837L88.2988 29.1758C88.0699 29.458 87.7441 29.5991 87.3214 29.5991H83.9137C83.7023 29.5991 83.535 29.5599 83.4118 29.4815C83.2885 29.4031 83.2268 29.3012 83.2268 29.1758C83.2268 29.0503 83.2973 28.9014 83.4382 28.7289L90.148 21.0847L83.2797 13.2995Z" fill="black"/>
<path d="M118.208 24.3776C118.419 24.1267 118.648 24.0013 118.895 24.0013C119.018 24.0013 119.141 24.0248 119.265 24.0718L121.669 24.895C122.021 25.0205 122.197 25.2008 122.197 25.436C122.197 25.5614 122.144 25.6947 122.039 25.8359C121.07 27.1373 119.819 28.1487 118.287 28.87C116.755 29.5756 115.1 29.9284 113.321 29.9284C111.454 29.9284 109.72 29.5364 108.117 28.7524C106.532 27.9527 105.264 26.8629 104.313 25.483C103.38 24.1032 102.913 22.6136 102.913 21.0142C102.913 19.4304 103.38 17.9565 104.313 16.5923C105.246 15.2124 106.514 14.1227 108.117 13.323C109.702 12.5233 111.437 12.1234 113.321 12.1234C115.047 12.1234 116.676 12.4841 118.208 13.2054C119.758 13.9267 121.026 14.9145 122.012 16.1689C122.118 16.3101 122.171 16.4434 122.171 16.5688C122.171 16.804 122.003 16.9843 121.669 17.1098L119.265 17.933C119.141 17.98 119.009 18.0035 118.869 18.0035C118.604 18.0035 118.375 17.8938 118.182 17.6743C117.548 17 116.799 16.4669 115.936 16.0749C115.091 15.6829 114.219 15.4869 113.321 15.4869C112.212 15.4869 111.181 15.7377 110.23 16.2395C109.279 16.7413 108.522 17.4234 107.958 18.2858C107.395 19.1482 107.113 20.0577 107.113 21.0142C107.113 21.9863 107.386 22.9036 107.932 23.7661C108.496 24.6128 109.253 25.287 110.204 25.7888C111.155 26.3063 112.194 26.565 113.321 26.565C114.254 26.565 115.153 26.3768 116.015 26.0005C116.896 25.6085 117.627 25.0675 118.208 24.3776Z" fill="black"/>
<path d="M134.761 29.9284C132.894 29.9284 131.168 29.5286 129.583 28.7289C127.998 27.9292 126.73 26.8394 125.779 25.4595C124.846 24.0797 124.379 22.59 124.379 20.9906C124.379 19.4069 124.837 17.9251 125.753 16.5453C126.686 15.1654 127.954 14.0756 129.557 13.2759C131.142 12.4762 132.876 12.0764 134.761 12.0764C136.645 12.0764 138.38 12.4762 139.965 13.2759C141.567 14.0599 142.844 15.1419 143.795 16.5218C144.729 17.9173 145.195 19.4069 145.195 20.9906C145.195 22.59 144.729 24.0797 143.795 25.4595C142.862 26.8394 141.594 27.9292 139.991 28.7289C138.388 29.5286 136.645 29.9284 134.761 29.9284ZM134.761 15.4633C133.651 15.4633 132.621 15.7142 131.67 16.216C130.719 16.7178 129.953 17.3998 129.372 18.2623C128.808 19.1247 128.526 20.0341 128.526 20.9906C128.526 21.9628 128.808 22.8801 129.372 23.7425C129.935 24.5893 130.692 25.2714 131.643 25.7888C132.594 26.3063 133.633 26.565 134.761 26.565C135.87 26.565 136.909 26.3063 137.878 25.7888C138.846 25.2714 139.612 24.5814 140.176 23.719C140.722 22.888 140.995 21.9785 140.995 20.9906C140.995 20.0185 140.713 19.109 140.15 18.2623C139.604 17.4155 138.855 16.7334 137.904 16.216C136.918 15.7142 135.87 15.4633 134.761 15.4633Z" fill="black"/>
<path d="M163.589 12.4292C164.047 12.4292 164.276 12.586 164.276 12.8996C164.276 13.0094 164.241 13.127 164.171 13.2524L155.374 29.0582C155.251 29.309 155.074 29.4345 154.846 29.4345C154.652 29.4345 154.476 29.309 154.317 29.0582L145.573 13.2524C145.503 13.127 145.468 13.0094 145.468 12.8996C145.468 12.586 145.697 12.4292 146.154 12.4292H149.034C149.492 12.4292 149.809 12.6017 149.985 12.9466L154.846 21.9315L159.733 12.9466C159.909 12.6017 160.226 12.4292 160.684 12.4292H163.589Z" fill="black"/>
<path d="M170.986 19.4618H179.439C179.686 19.4618 179.88 19.5245 180.021 19.65C180.161 19.7754 180.232 19.9479 180.232 20.1674V22.002C180.232 22.2215 180.161 22.394 180.021 22.5195C179.88 22.6449 179.686 22.7076 179.439 22.7076H170.986V26.3768H180.655C180.901 26.3768 181.095 26.4395 181.236 26.565C181.377 26.6904 181.447 26.8629 181.447 27.0824V28.8935C181.447 29.113 181.377 29.2855 181.236 29.411C181.095 29.5364 180.901 29.5991 180.655 29.5991H167.605C167.358 29.5991 167.164 29.5364 167.024 29.411C166.883 29.2855 166.812 29.113 166.812 28.8935V13.1113C166.812 12.8918 166.883 12.7193 167.024 12.5938C167.164 12.4684 167.358 12.4057 167.605 12.4057H180.655C180.901 12.4057 181.095 12.4684 181.236 12.5938C181.377 12.7193 181.447 12.8918 181.447 13.1113V14.9224C181.447 15.1419 181.377 15.3144 181.236 15.4398C181.095 15.5653 180.901 15.628 180.655 15.628H170.986V19.4618Z" fill="black"/>
<path d="M189.483 28.8935C189.483 29.113 189.412 29.2855 189.272 29.411C189.131 29.5364 188.937 29.5991 188.69 29.5991H186.128C185.881 29.5991 185.688 29.5364 185.547 29.411C185.406 29.2855 185.336 29.113 185.336 28.8935V13.1113C185.336 12.8918 185.406 12.7193 185.547 12.5938C185.688 12.4684 185.881 12.4057 186.128 12.4057H193.921C195.295 12.4057 196.51 12.6566 197.566 13.1583C198.623 13.6601 199.442 14.3657 200.023 15.2752C200.604 16.1846 200.895 17.2195 200.895 18.3799C200.895 19.6186 200.543 20.7241 199.838 21.6963C199.134 22.6684 198.174 23.3819 196.959 23.8366L197.699 24.6834C198.033 25.0597 198.482 25.5771 199.046 26.2357C199.609 26.8786 200.323 27.7097 201.186 28.7289C201.326 28.87 201.397 29.019 201.397 29.1758C201.397 29.3012 201.335 29.4031 201.212 29.4815C201.106 29.5599 200.948 29.5991 200.736 29.5991H197.566C197.161 29.5991 196.836 29.4658 196.589 29.1993C195.251 27.6783 193.833 26.024 192.336 24.2365H189.483V28.8935ZM193.921 21.0142C194.696 21.0142 195.356 20.779 195.902 20.3085C196.466 19.8225 196.748 19.1796 196.748 18.3799C196.748 17.6115 196.519 16.9608 196.061 16.4277C195.62 15.8945 194.907 15.628 193.921 15.628H189.483V21.0142H193.921Z" fill="black"/>
<path d="M219.355 12.4292C219.566 12.4292 219.734 12.4684 219.857 12.5468C219.98 12.6252 220.042 12.735 220.042 12.8761C220.042 13.0015 219.989 13.1348 219.883 13.2759L212.83 23.084V28.8935C212.83 29.113 212.76 29.2855 212.619 29.411C212.478 29.5364 212.284 29.5991 212.038 29.5991H209.449C209.202 29.5991 209.009 29.5364 208.868 29.411C208.727 29.2855 208.656 29.113 208.656 28.8935V23.084L201.656 13.2759C201.55 13.1348 201.497 13.0015 201.497 12.8761C201.497 12.735 201.559 12.6252 201.682 12.5468C201.806 12.4684 201.973 12.4292 202.184 12.4292H205.301C205.742 12.4292 206.059 12.586 206.252 12.8996L210.743 19.3677L215.287 12.8996C215.481 12.586 215.798 12.4292 216.238 12.4292H219.355Z" fill="black"/>
</svg>
