<svg width="585" height="367" viewBox="0 0 585 367" fill="none" xmlns="http://www.w3.org/2000/svg">
<path d="M480.001 7.19133C490.526 -2.76923 507.147 -2.32838 517.126 8.17597L577.795 72.0369C587.774 82.5413 587.333 99.1313 576.809 109.092L378.323 296.948C367.799 306.909 351.178 306.468 341.199 295.963L280.53 232.103C270.55 221.598 270.992 205.008 281.516 195.048L480.001 7.19133Z" fill="#48CAED"/>
<path d="M206.676 67.6826C217.201 57.722 233.822 58.1629 243.801 68.6672L306.721 134.897C316.7 145.402 316.259 161.992 305.735 171.952L107.249 359.809C96.7253 369.769 80.104 369.328 70.1247 358.824L7.20488 292.594C-2.77444 282.089 -2.33278 265.499 8.19135 255.539L206.676 67.6826Z" fill="#FF9D00"/>
<path d="M390.166 289.006C332.03 343.306 240.801 340.285 186.399 282.259C131.997 224.232 135.023 133.174 193.159 78.8746C251.294 24.575 342.524 27.596 396.926 85.6222C451.328 143.648 448.301 234.707 390.166 289.006Z" fill="#2A8BEA"/>
<path d="M193.159 78.8746C135.023 133.174 131.997 224.232 186.399 282.259L396.926 85.6222C342.524 27.596 251.294 24.575 193.159 78.8746Z" fill="#F73C5C"/>
</svg>
